STARTFONT 2.1
FONT -Monotype-Times New Roman-Regular-I-Normal--36-360-75-75-P-183-iso8859-9
SIZE 36 75 75
FONTBOUNDINGBOX 46 43 -7 -9

STARTPROPERTIES 24
FOUNDRY "Monotype"
FAMILY_NAME "Times New Roman"
WEIGHT_NAME "Regular"
SLANT "I"
SETWIDTH_NAME "Normal"
ADD_STYLE_NAME ""
PIXEL_SIZE 36
POINT_SIZE 360
RESOLUTION_X 75
RESOLUTION_Y 75
SPACING "P"
AVERAGE_WIDTH 183
CHARSET_REGISTRY "iso8859"
CHARSET_ENCODING "9"
FACE_NAME "Times New Roman Italic ISO Latin5"
_DEC_DEVICE_FONTNAMES "PS=timesnewroman-it-lat5"
COPYRIGHT "Copyright (c) 1993 Monotype Typography Ltd."
CAP_HEIGHT 28
X_HEIGHT 19
WEIGHT 10
QUAD_WIDTH 21
DEFAULT_CHAR 160
FONT_DESCENT 9
FONT_ASCENT 34
ENDPROPERTIES

CHARS 191

STARTCHAR space
ENCODING 32
SWIDTH 250 0
DWIDTH 10 0
BBX 0 0 0 0
BITMAP
ENDCHAR

STARTCHAR exclam
ENCODING 33
SWIDTH 333 0
DWIDTH 13 0
BBX 9 26 3 0
BITMAP
0180
0380
0380
0380
0780
0700
0700
0600
0600
0600
0C00
0C00
0C00
0800
0800
1800
1000
1000
1000
0000
0000
0000
6000
F000
F000
6000
ENDCHAR

STARTCHAR quotedbl
ENCODING 34
SWIDTH 420 0
DWIDTH 16 0
BBX 12 11 5 15
BITMAP
1830
3870
78F0
78F0
70E0
70E0
60C0
60C0
6180
C180
C100
ENDCHAR

STARTCHAR numbersign
ENCODING 35
SWIDTH 500 0
DWIDTH 19 0
BBX 17 26 2 0
BITMAP
030300
030300
020200
020200
060600
060600
060600
040400
FFFF80
FFFF80
0C0C00
0C0C00
080800
080800
181800
181800
FFFF80
FFFF80
101000
303000
303000
303000
202000
202000
606000
606000
ENDCHAR

STARTCHAR dollar
ENCODING 36
SWIDTH 500 0
DWIDTH 19 0
BBX 18 29 1 -2
BITMAP
000400
00FE00
018B80
0309C0
060980
0E1880
0E1080
0E1080
0F3000
07A000
07E000
03E000
01F000
00F800
007C00
00DE00
009E00
008F00
018700
210700
210700
410600
620600
620C00
F21C00
7E3000
1FC000
040000
0C0000
ENDCHAR

STARTCHAR percent
ENCODING 37
SWIDTH 833 0
DWIDTH 32 0
BBX 28 26 3 0
BITMAP
07800030
1CC00060
386000C0
30600180
70600300
60600600
E0E00C00
E0E01800
E0E03000
C1C06000
C1C0C000
43818000
67030000
3C0603C0
000C0C60
00181C30
00303830
00603830
00807070
01007070
02007070
040060E0
080060E0
100061C0
20003380
C0001E00
ENDCHAR

STARTCHAR ampersand
ENCODING 38
SWIDTH 778 0
DWIDTH 30 0
BBX 26 26 2 0
BITMAP
0003E000
00063800
000C1800
00181800
00181800
00383800
00383000
00386000
0039C000
003F0000
003C0000
01FC0000
071C3FC0
1E1E0F00
3C1E0C00
781E0C00
700F1800
F00F1000
F007A000
F007E000
F003C000
F803C000
7803E000
7E0CF040
3FF87F80
0FC01E00
ENDCHAR

STARTCHAR quoteright
ENCODING 39
SWIDTH 333 0
DWIDTH 13 0
BBX 6 8 7 18
BITMAP
18
3C
3C
1C
18
18
30
E0
ENDCHAR

STARTCHAR parenleft
ENCODING 40
SWIDTH 333 0
DWIDTH 13 0
BBX 14 34 3 -8
BITMAP
0004
0018
0030
0060
00C0
0180
0380
0700
0600
0E00
1C00
1C00
3800
3800
7800
7000
7000
7000
F000
E000
E000
E000
E000
E000
6000
6000
6000
6000
2000
2000
3000
1000
1000
0800
ENDCHAR

STARTCHAR parenright
ENCODING 41
SWIDTH 333 0
DWIDTH 13 0
BBX 14 34 -4 -8
BITMAP
0040
0020
0020
0010
0010
0018
0018
0018
0018
001C
001C
001C
001C
001C
001C
003C
0038
0038
0038
0078
0070
00F0
00E0
00E0
01C0
0180
0300
0700
0600
0C00
1800
2000
4000
8000
ENDCHAR

STARTCHAR asterisk
ENCODING 42
SWIDTH 500 0
DWIDTH 19 0
BBX 14 15 5 11
BITMAP
0700
0700
0700
E73C
F278
FAF8
1EC0
0700
7AF0
F278
E238
C718
0700
0700
0300
ENDCHAR

STARTCHAR plus
ENCODING 43
SWIDTH 675 0
DWIDTH 26 0
BBX 20 20 4 3
BITMAP
006000
006000
006000
006000
006000
006000
006000
006000
006000
FFFFF0
FFFFF0
006000
006000
006000
006000
006000
006000
006000
006000
006000
ENDCHAR

STARTCHAR comma
ENCODING 44
SWIDTH 250 0
DWIDTH 10 0
BBX 6 8 -1 -5
BITMAP
38
3C
3C
18
18
10
E0
40
ENDCHAR

STARTCHAR minus
ENCODING 45
SWIDTH 675 0
DWIDTH 26 0
BBX 20 2 4 12
BITMAP
FFFFF0
FFFFF0
ENDCHAR

STARTCHAR period
ENCODING 46
SWIDTH 250 0
DWIDTH 10 0
BBX 4 4 1 0
BITMAP
60
F0
F0
60
ENDCHAR

STARTCHAR slash
ENCODING 47
SWIDTH 278 0
DWIDTH 11 0
BBX 15 27 -1 -1
BITMAP
0006
0004
000C
0008
0018
0010
0030
0020
0060
0040
00C0
0080
0180
0100
0300
0600
0600
0C00
0C00
1800
1800
3000
2000
6000
4000
C000
8000
ENDCHAR

STARTCHAR zero
ENCODING 48
SWIDTH 500 0
DWIDTH 19 0
BBX 17 26 2 0
BITMAP
007800
01C600
030700
070300
0E0300
0E0380
1C0380
1C0380
380380
380380
780780
780780
700780
700700
F00F00
F00F00
F00F00
E00E00
E01E00
E01C00
E03C00
603800
607000
706000
31C000
0F0000
ENDCHAR

STARTCHAR one
ENCODING 49
SWIDTH 500 0
DWIDTH 19 0
BBX 14 26 2 0
BITMAP
000C
00FC
0178
0038
0038
0070
0070
0070
0070
00E0
00E0
00E0
01C0
01C0
01C0
01C0
0380
0380
0380
0700
0700
0700
0700
0E00
1F00
FFC0
ENDCHAR

STARTCHAR two
ENCODING 50
SWIDTH 500 0
DWIDTH 19 0
BBX 17 26 1 0
BITMAP
007C00
01FE00
03FF00
020F80
040780
000380
000380
000380
000380
000300
000700
000600
000C00
001800
001000
002000
004000
008000
010000
020000
040000
080400
100C00
3FF800
7FF800
FFF800
ENDCHAR

STARTCHAR three
ENCODING 51
SWIDTH 500 0
DWIDTH 19 0
BBX 16 26 1 0
BITMAP
007C
01FE
030F
060F
0007
0007
0007
000E
001C
0038
01E0
0FF0
01F8
007C
003C
003C
001C
001C
001C
0018
0018
0030
E030
F860
FF80
3E00
ENDCHAR

STARTCHAR four
ENCODING 52
SWIDTH 500 0
DWIDTH 19 0
BBX 18 26 1 0
BITMAP
0000C0
000180
000380
000780
000F00
001B00
003700
006600
00CE00
018E00
010E00
020C00
061C00
0C1C00
181800
303800
603800
7FFF00
FFFE00
007000
007000
006000
00E000
00E000
00C000
01C000
ENDCHAR

STARTCHAR five
ENCODING 53
SWIDTH 500 0
DWIDTH 19 0
BBX 16 26 2 0
BITMAP
00FF
01FF
01FF
0300
0200
0200
0700
07C0
0FF0
03F8
0078
0038
003C
001C
001C
001C
001C
0018
0018
0018
0030
0020
E060
F1C0
FF00
7C00
ENDCHAR

STARTCHAR six
ENCODING 54
SWIDTH 500 0
DWIDTH 19 0
BBX 18 26 2 0
BITMAP
0003C0
001E00
007800
00F000
01C000
038000
078000
0F0000
1E0000
1DF000
3E3C00
381C00
781E00
780E00
700E00
F00E00
E00E00
E00E00
E01E00
E01C00
E01C00
603800
603800
307000
18C000
0F8000
ENDCHAR

STARTCHAR seven
ENCODING 55
SWIDTH 500 0
DWIDTH 19 0
BBX 16 26 4 0
BITMAP
1FFF
1FFE
3FF6
600C
C00C
0018
0018
0030
0030
0060
00C0
00C0
0180
0180
0300
0300
0600
0C00
0C00
1800
1800
3000
3000
6000
C000
4000
ENDCHAR

STARTCHAR eight
ENCODING 56
SWIDTH 500 0
DWIDTH 19 0
BBX 17 26 1 0
BITMAP
007C00
018600
030300
030180
070180
070180
070180
078380
038300
03C600
01FC00
00F000
03F800
0E7800
183C00
381C00
701E00
600E00
E00E00
E00E00
E00E00
600C00
601C00
301800
183000
07C000
ENDCHAR

STARTCHAR nine
ENCODING 57
SWIDTH 500 0
DWIDTH 19 0
BBX 18 26 1 0
BITMAP
007C00
01C300
038300
070180
070180
0E01C0
0E01C0
1E01C0
1C01C0
1C01C0
1C03C0
1C0380
1C0380
1E0780
0E0700
071F00
03EE00
001E00
003C00
007800
007000
01E000
03C000
070000
1E0000
F00000
ENDCHAR

STARTCHAR colon
ENCODING 58
SWIDTH 333 0
DWIDTH 13 0
BBX 8 17 2 0
BITMAP
06
0F
0F
06
00
00
00
00
00
00
00
00
00
60
F0
F0
60
ENDCHAR

STARTCHAR semicolon
ENCODING 59
SWIDTH 333 0
DWIDTH 13 0
BBX 10 22 0 -5
BITMAP
0180
03C0
03C0
0180
0000
0000
0000
0000
0000
0000
0000
0000
0000
0000
3C00
3C00
3C00
1800
1800
1000
E000
4000
ENDCHAR

STARTCHAR less
ENCODING 60
SWIDTH 675 0
DWIDTH 26 0
BBX 20 19 4 3
BITMAP
000010
000070
0003C0
000F00
003C00
00E000
078000
1E0000
780000
E00000
780000
0E0000
03C000
00F000
001C00
000780
0001E0
000070
000010
ENDCHAR

STARTCHAR equal
ENCODING 61
SWIDTH 675 0
DWIDTH 26 0
BBX 20 8 4 9
BITMAP
FFFFF0
FFFFF0
000000
000000
000000
000000
FFFFF0
FFFFF0
ENDCHAR

STARTCHAR greater
ENCODING 62
SWIDTH 675 0
DWIDTH 26 0
BBX 20 19 4 3
BITMAP
800000
E00000
780000
0E0000
03C000
00F000
003C00
000780
0001E0
000070
0003C0
000F00
003C00
00E000
078000
1E0000
780000
C00000
800000
ENDCHAR

STARTCHAR question
ENCODING 63
SWIDTH 500 0
DWIDTH 19 0
BBX 14 26 4 0
BITMAP
07C0
1870
3038
701C
701C
301C
003C
0038
0078
00F0
01E0
0380
0700
0C00
0800
1000
1000
2000
2000
0000
0000
0000
6000
F000
F000
6000
ENDCHAR

STARTCHAR at
ENCODING 64
SWIDTH 920 0
DWIDTH 35 0
BBX 33 35 1 -9
BITMAP
0003FC0000
001C038000
007000C000
00C0002000
0380001000
0700000800
0600000C00
0C00000400
1800000400
3800F38200
30038B0200
30060F0200
600E070200
601C0E0200
60180E0200
C0380E0200
C0700E0200
C0701C0600
C0E01C0400
C0E03C0C00
C0E0280800
C0E0781800
40E0B83000
60F1386000
607E38C180
203C1F0100
3000000200
1000000600
1800000C00
0C00000800
0600003000
0380006000
00C001C000
00380F0000
000FF80000
ENDCHAR

STARTCHAR A
ENCODING 65
SWIDTH 611 0
DWIDTH 23 0
BBX 23 26 -2 0
BITMAP
000004
000008
000018
000038
000038
000078
0000D8
0001B8
000138
000278
000678
000C70
000870
001070
003070
006070
007FF0
008070
018070
030070
0200F0
0600F0
0C00F0
1C00F0
3C01F0
FF07FE
ENDCHAR

STARTCHAR B
ENCODING 66
SWIDTH 611 0
DWIDTH 23 0
BBX 23 26 -1 0
BITMAP
03FFE0
007878
00703C
00701E
00701E
00F01E
00E01E
00E01E
01E03C
01C038
01C0F0
01C3E0
03FF00
03C3C0
03C0E0
0380F0
078078
078078
070078
0F0078
0F0078
0F00F0
0E01F0
1E03E0
1E0F80
FFFE00
ENDCHAR

STARTCHAR C
ENCODING 67
SWIDTH 667 0
DWIDTH 25 0
BBX 24 26 3 0
BITMAP
000FF1
00781F
00E00F
03C006
078006
0F0002
1E0002
1C0002
3C0000
380000
780000
780000
F00000
F00000
F00000
F00000
F00000
F00000
F00000
780000
780018
3C0030
3E0060
1F0180
07FF00
00F800
ENDCHAR

STARTCHAR D
ENCODING 68
SWIDTH 722 0
DWIDTH 27 0
BBX 28 26 -1 0
BITMAP
01FFF800
00781E00
00380780
007803C0
007001C0
007001E0
007000E0
00F000F0
00E000F0
00E000F0
00E000F0
01E000F0
01C000F0
01C000F0
03C000E0
038001E0
038001E0
038001C0
078003C0
07000380
07000700
0F000E00
0F001C00
0E007800
1F03E000
FFFF0000
ENDCHAR

STARTCHAR E
ENCODING 69
SWIDTH 611 0
DWIDTH 23 0
BBX 25 26 -1 0
BITMAP
01FFFF80
00780F80
00780300
00780100
00700100
00700100
00700000
00F00000
00E02000
00E02000
01E04000
01C1C000
01FFC000
01C1C000
03C08000
03808000
03808000
03800000
07800000
07000400
07000800
0F001800
0E001800
0E007000
1F01F000
FFFFF000
ENDCHAR

STARTCHAR F
ENCODING 70
SWIDTH 611 0
DWIDTH 23 0
BBX 26 26 -1 0
BITMAP
01FFFFC0
007803C0
007801C0
00780080
00700080
00700080
00700080
00F00000
00E01000
00E03000
01E02000
01C0E000
01FFE000
01C0C000
03C04000
03804000
03804000
03800000
07800000
07000000
07000000
0F000000
0E000000
0E000000
1F000000
FFC00000
ENDCHAR

STARTCHAR G
ENCODING 71
SWIDTH 722 0
DWIDTH 27 0
BBX 25 26 3 0
BITMAP
001FF880
007C1F00
01E00700
03C00300
07800300
0F000200
1E000200
1C000200
3C000000
38000000
78000000
78000000
70000000
F003FF80
F0003C00
F0003800
F0003800
F0007800
F0007000
70007000
78007000
3800F000
3C00E000
1E00E000
0783C000
01FF0000
ENDCHAR

STARTCHAR H
ENCODING 72
SWIDTH 722 0
DWIDTH 27 0
BBX 32 26 -1 0
BITMAP
01FF83FF
007C00F8
007800F0
007800F0
007000E0
007000E0
007000E0
00F001E0
00E001C0
00E001C0
00E003C0
01C00380
01FFFF80
01C00380
03C00780
03800700
03800700
03800F00
07800F00
07000E00
07000E00
0F001E00
0E001C00
0E001C00
1F003E00
FFC1FF80
ENDCHAR

STARTCHAR I
ENCODING 73
SWIDTH 333 0
DWIDTH 13 0
BBX 17 26 -1 0
BITMAP
01FF80
007C00
007800
007800
007000
007000
007000
00F000
00E000
00E000
01E000
01E000
01C000
01C000
03C000
038000
038000
038000
078000
070000
070000
0F0000
0E0000
0E0000
1F0000
FFC000
ENDCHAR

STARTCHAR J
ENCODING 74
SWIDTH 444 0
DWIDTH 17 0
BBX 22 26 -1 0
BITMAP
000FFC
0001E0
0001C0
0001C0
0003C0
000380
000380
000380
000780
000700
000700
000F00
000E00
000E00
000E00
001E00
001C00
001C00
003C00
003800
703800
F07000
F0F000
E0E000
638000
3F0000
ENDCHAR

STARTCHAR K
ENCODING 75
SWIDTH 667 0
DWIDTH 25 0
BBX 29 26 -1 0
BITMAP
01FF87F8
007C03C0
00780380
00780600
00700C00
00701800
00706000
00F0C000
00E18000
00E70000
01EC0000
01E80000
01DC0000
01DE0000
03CE0000
038F0000
03878000
03838000
0783C000
0701E000
0701E000
0F00F000
0E007800
0E007800
1F00FC00
FFC3FF80
ENDCHAR

STARTCHAR L
ENCODING 76
SWIDTH 556 0
DWIDTH 21 0
BBX 21 26 -1 0
BITMAP
01FF80
007C00
007800
007800
007000
007000
007000
00F000
00E000
00E000
00E000
01E000
01C000
01C000
03C000
038000
038000
038000
078000
070008
070010
0F0010
0F0030
0E0070
1F03E0
FFFFE0
ENDCHAR

STARTCHAR M
ENCODING 77
SWIDTH 833 0
DWIDTH 32 0
BBX 36 26 -1 0
BITMAP
01F80003F0
0078000780
0038000F00
0078000F00
007C001F00
005C003600
005C006E00
00DC005E00
009C00DC00
009C019C00
019C011C00
019C033C00
011C063800
011E0C3800
031E087800
020E187000
020E307000
060E207000
060E60F000
040EC0E000
040E80E000
0C0F00E000
080F01E000
080E01E000
1C0403E000
FF041FFC00
ENDCHAR

STARTCHAR N
ENCODING 78
SWIDTH 667 0
DWIDTH 25 0
BBX 30 26 -1 0
BITMAP
07F003FC
00F000E0
007800C0
007800C0
007C00C0
005C0080
005C0080
00DE0180
008E0100
008E0100
01870300
01870300
01078200
01038200
03038600
0201C600
0201C400
0601EC00
0600EC00
0400E800
0400F800
0C007800
0C007800
08003000
1C003000
FF003000
ENDCHAR

STARTCHAR O
ENCODING 79
SWIDTH 722 0
DWIDTH 27 0
BBX 25 26 2 0
BITMAP
000FF000
00383C00
00E01E00
01C00F00
03800700
07000780
0F000780
0E000780
1E000780
3C000780
3C000780
78000780
78000F00
78000F00
F0000F00
F0001E00
F0001E00
F0003C00
F0003C00
F0007800
70007000
7800E000
3801C000
3C078000
0E1E0000
07F80000
ENDCHAR

STARTCHAR P
ENCODING 80
SWIDTH 611 0
DWIDTH 23 0
BBX 25 26 -1 0
BITMAP
01FFF800
003C1E00
00380F00
00380700
00780780
00700780
00700780
00700780
00F00700
00E00F00
00E01E00
00E03C00
01F0F800
01FFE000
01C00000
03C00000
03800000
03800000
03800000
07800000
07000000
07000000
0F000000
0F000000
1F000000
FFE00000
ENDCHAR

STARTCHAR Q
ENCODING 81
SWIDTH 722 0
DWIDTH 27 0
BBX 25 34 2 -8
BITMAP
000FF000
003C3C00
00E01E00
01C00E00
03800700
07000700
0F000780
0E000780
1E000780
3C000780
3C000780
78000780
78000F00
78000F00
F0000F00
F0001E00
F0001E00
F0001E00
F0003C00
F0007800
70007800
7000F000
7801E000
3C03C000
1E0F0000
0FFC0000
01800000
02000000
0C000200
18000400
3F800800
7FF83000
8FFFE000
007F0000
ENDCHAR

STARTCHAR R
ENCODING 82
SWIDTH 611 0
DWIDTH 23 0
BBX 23 26 -1 0
BITMAP
01FFF0
007878
00783C
00781E
00701E
00701E
00701E
00E01E
00E03C
00E03C
01E078
01C1F0
01FFC0
01C700
03C700
038780
038380
078380
0703C0
0701C0
0701C0
0F01E0
0E00E0
0E00F0
1F00F8
FFC07E
ENDCHAR

STARTCHAR S
ENCODING 83
SWIDTH 500 0
DWIDTH 19 0
BBX 21 26 0 0
BITMAP
007F08
01E1F0
038070
030070
070030
070020
070020
078020
03C000
03E000
01F000
00F800
007C00
003E00
001F00
000F00
000F80
200780
200780
600380
600380
600780
700700
780E00
FE3C00
87F000
ENDCHAR

STARTCHAR T
ENCODING 84
SWIDTH 556 0
DWIDTH 21 0
BBX 22 26 3 0
BITMAP
1FFFFC
3FFFF8
383818
203818
207810
407010
407010
00F000
00E000
00E000
00E000
01E000
01C000
01C000
03C000
038000
038000
038000
078000
070000
070000
0F0000
0F0000
0E0000
1F0000
FFE000
ENDCHAR

STARTCHAR U
ENCODING 85
SWIDTH 722 0
DWIDTH 27 0
BBX 27 26 4 0
BITMAP
7FE01FE0
1F000700
0E000600
0E000600
1E000600
1C000400
1C000C00
1C000C00
3C000800
38000800
38001800
78001000
70001000
70003000
70003000
F0002000
E0002000
E0006000
E0004000
E000C000
E0008000
70018000
78030000
3C0E0000
1FFC0000
03E00000
ENDCHAR

STARTCHAR V
ENCODING 86
SWIDTH 611 0
DWIDTH 23 0
BBX 22 26 5 0
BITMAP
FFC1FC
1E00F0
1C0060
1C00C0
1C0080
1C0100
1C0300
1C0600
3C0400
3C0800
381800
383000
382000
386000
38C000
388000
390000
3B0000
7E0000
7C0000
780000
780000
700000
600000
400000
400000
ENDCHAR

STARTCHAR W
ENCODING 87
SWIDTH 833 0
DWIDTH 32 0
BBX 31 26 5 0
BITMAP
FFBFF9FE
3E07C078
3C038060
3C038060
3C0780C0
380F8080
380F8180
381B0300
38170200
38270600
38670400
38470800
38871800
79871000
79072000
730F6000
760F4000
740E8000
7C0F8000
780F0000
700F0000
700E0000
600C0000
C00C0000
C0080000
80100000
ENDCHAR

STARTCHAR X
ENCODING 88
SWIDTH 611 0
DWIDTH 23 0
BBX 31 26 -3 0
BITMAP
007FC3FE
001E0078
001E00E0
000E00C0
000E0180
000F0300
00070600
00070C00
00079800
0007B000
0003E000
0003C000
0003C000
0003C000
0007C000
000DC000
0019E000
0030E000
0020E000
0040F000
00807000
01007000
03007800
0E007800
1E007C00
FF83FF00
ENDCHAR

STARTCHAR Y
ENCODING 89
SWIDTH 556 0
DWIDTH 21 0
BBX 21 26 4 0
BITMAP
FFC7F8
1E00E0
1E00C0
0E0180
0E0100
0E0300
0F0600
070400
070800
079800
039000
03A000
03E000
01C000
03C000
038000
038000
078000
070000
070000
0F0000
0F0000
0E0000
1E0000
1E0000
FFC000
ENDCHAR

STARTCHAR Z
ENCODING 90
SWIDTH 556 0
DWIDTH 21 0
BBX 23 26 0 0
BITMAP
03FFFE
07803E
06003C
040078
0800F0
0801E0
0001E0
0003C0
000780
000F00
000F00
001E00
003C00
007800
00F800
00F000
01E000
03C000
078000
078010
0F0010
1E0030
3C0020
3C00E0
7807E0
FFFFC0
ENDCHAR

STARTCHAR bracketleft
ENCODING 91
SWIDTH 389 0
DWIDTH 15 0
BBX 17 33 2 -7
BITMAP
007F80
007000
006000
00E000
00E000
00E000
00C000
01C000
01C000
018000
038000
038000
038000
070000
070000
070000
060000
0E0000
0E0000
0C0000
1C0000
1C0000
1C0000
180000
380000
380000
300000
700000
700000
700000
E00000
E00000
FF0000
ENDCHAR

STARTCHAR backslash
ENCODING 92
SWIDTH 278 0
DWIDTH 11 0
BBX 5 27 4 -1
BITMAP
80
C0
C0
C0
40
40
40
40
40
60
60
60
20
20
20
20
30
30
30
30
10
10
10
10
18
18
18
ENDCHAR

STARTCHAR bracketright
ENCODING 93
SWIDTH 389 0
DWIDTH 15 0
BBX 18 33 -4 -7
BITMAP
003FC0
000180
000380
000380
000380
000300
000700
000700
000600
000E00
000E00
000E00
001C00
001C00
001C00
001800
003800
003800
003000
007000
007000
007000
006000
00E000
00E000
00C000
01C000
01C000
01C000
038000
038000
038000
FF0000
ENDCHAR

STARTCHAR asciicircum
ENCODING 94
SWIDTH 422 0
DWIDTH 16 0
BBX 16 14 1 12
BITMAP
0080
0180
01C0
0340
0660
0630
0C30
0818
1808
300C
3006
6006
4003
C003
ENDCHAR

STARTCHAR underscore
ENCODING 95
SWIDTH 500 0
DWIDTH 19 0
BBX 19 2 0 -5
BITMAP
FFFFE0
FFFFE0
ENDCHAR

STARTCHAR quoteleft
ENCODING 96
SWIDTH 333 0
DWIDTH 13 0
BBX 6 8 8 18
BITMAP
04
18
20
60
60
F0
F0
70
ENDCHAR

STARTCHAR a
ENCODING 97
SWIDTH 500 0
DWIDTH 19 0
BBX 17 17 1 0
BITMAP
00F380
038B80
060700
0E0700
1C0700
180600
380E00
700E00
700E00
701C00
E01C00
E03C00
E05800
E0B980
F13900
7E3E00
3C3800
ENDCHAR

STARTCHAR b
ENCODING 98
SWIDTH 500 0
DWIDTH 19 0
BBX 17 27 1 0
BITMAP
004000
0FC000
01C000
038000
038000
038000
030000
070000
070000
070000
0E3C00
0E7F00
0F8780
0E0380
1E0380
1C0380
1C0380
380380
380300
380700
700700
700E00
700C00
601800
E03000
706000
1F8000
ENDCHAR

STARTCHAR c
ENCODING 99
SWIDTH 444 0
DWIDTH 17 0
BBX 15 17 1 0
BITMAP
00F8
0386
0606
0C0E
180E
3800
7000
7000
E000
E000
E000
E000
E00C
F018
7830
3FC0
1F00
ENDCHAR

STARTCHAR d
ENCODING 100
SWIDTH 500 0
DWIDTH 19 0
BBX 20 27 1 0
BITMAP
000010
0007F0
0000E0
0000E0
0000E0
0000C0
0001C0
0001C0
000180
000380
00F380
038D80
060700
0E0700
1C0700
380600
380E00
700E00
701E00
F01C00
E02C00
E05C00
E05800
E0B980
F33A00
7E3E00
3C3800
ENDCHAR

STARTCHAR e
ENCODING 101
SWIDTH 444 0
DWIDTH 17 0
BBX 15 17 1 0
BITMAP
00F8
030E
060E
1C0E
180C
381C
7038
70E0
EF80
F000
E000
E000
E004
F018
7860
3FC0
1F00
ENDCHAR

STARTCHAR f
ENCODING 102
SWIDTH 278 0
DWIDTH 11 0
BBX 25 34 -7 -8
BITMAP
00000F00
00003380
00004380
0000C000
00018000
00038000
00030000
00070000
000F0000
007FC000
000E0000
000E0000
000E0000
001C0000
001C0000
001C0000
001C0000
00380000
00380000
00380000
00380000
00700000
00700000
00700000
00700000
00E00000
00E00000
00C00000
00C00000
01800000
21000000
E3000000
66000000
78000000
ENDCHAR

STARTCHAR g
ENCODING 103
SWIDTH 500 0
DWIDTH 19 0
BBX 21 25 -1 -8
BITMAP
007E00
01C3F8
0381F8
0701C0
0F01C0
0E01C0
0E03C0
0E0380
0E0780
070700
03FC00
00C000
030000
060000
0F0000
0FF000
07FE00
187F80
300780
600380
E00180
E00180
700300
3C1E00
0FF000
ENDCHAR

STARTCHAR h
ENCODING 104
SWIDTH 500 0
DWIDTH 19 0
BBX 17 27 1 0
BITMAP
004000
0FC000
01C000
038000
038000
038000
030000
070000
070000
070000
0E0E00
0E3F00
0E6700
0CC700
1C8700
1D0600
1E0E00
3A0E00
3C0C00
3C1C00
381C00
701C00
701800
703980
E03B00
E03E00
E03800
ENDCHAR

STARTCHAR i
ENCODING 105
SWIDTH 278 0
DWIDTH 11 0
BBX 9 25 1 -1
BITMAP
0300
0780
0780
0300
0000
0000
0000
0200
7E00
1E00
0C00
1C00
1C00
1C00
3800
3800
3800
3800
7000
7000
7200
E600
FC00
F800
6000
ENDCHAR

STARTCHAR j
ENCODING 106
SWIDTH 278 0
DWIDTH 11 0
BBX 17 33 -6 -8
BITMAP
000300
000780
000780
000300
000000
000000
000000
000000
007E00
001E00
000E00
001C00
001C00
001C00
001800
003800
003800
003800
003000
007000
007000
006000
00E000
00E000
00E000
00C000
01C000
018000
018000
030000
E30000
C60000
780000
ENDCHAR

STARTCHAR k
ENCODING 107
SWIDTH 444 0
DWIDTH 17 0
BBX 18 27 1 0
BITMAP
01C000
0FC000
038000
038000
038000
038000
070000
070000
070000
060000
0E7FC0
0E0E00
0E1800
1C3000
1C6000
1CC000
198000
3BC000
3DC000
39C000
30C000
70E000
70E000
60E300
E07600
E07C00
E07800
ENDCHAR

STARTCHAR l
ENCODING 108
SWIDTH 278 0
DWIDTH 11 0
BBX 10 26 1 0
BITMAP
0FC0
03C0
0180
0380
0380
0380
0700
0700
0700
0600
0E00
0E00
0E00
1C00
1C00
1C00
1800
3800
3800
3800
7000
7000
7300
7600
FC00
7800
ENDCHAR

STARTCHAR m
ENCODING 109
SWIDTH 722 0
DWIDTH 27 0
BBX 26 17 0 0
BITMAP
0F0E0700
3F3F0F80
0E671380
0E472380
0E874380
0D0E8300
1D0E8700
1E0F0700
1C0D0600
3C1E0E00
381C0E00
381C0E00
381C0C00
70381CC0
70381D80
70381F00
E0701C00
ENDCHAR

STARTCHAR n
ENCODING 110
SWIDTH 500 0
DWIDTH 19 0
BBX 17 17 1 0
BITMAP
1F0E00
7E3F00
0E6700
0CC700
1C8700
1D0600
1E0E00
3A0E00
3C0C00
3C1C00
381C00
701C00
701800
703980
E03B00
E03E00
E03800
ENDCHAR

STARTCHAR o
ENCODING 111
SWIDTH 500 0
DWIDTH 19 0
BBX 16 17 1 0
BITMAP
00F8
030C
0E06
1C07
3807
3807
7007
7007
F00F
E00E
E00E
E01C
E01C
E038
7070
30C0
1F00
ENDCHAR

STARTCHAR p
ENCODING 112
SWIDTH 500 0
DWIDTH 19 0
BBX 22 25 -4 -8
BITMAP
0038F0
03F3F8
00763C
00681C
00F01C
00F01C
00E01C
00E01C
01C038
01C038
018030
038070
0380E0
0380C0
070180
078700
077C00
060000
0E0000
0E0000
0E0000
1C0000
1C0000
3E0000
FF8000
ENDCHAR

STARTCHAR q
ENCODING 113
SWIDTH 500 0
DWIDTH 19 0
BBX 17 25 1 -8
BITMAP
00F180
038B80
060500
0E0700
1C0700
380700
380E00
700E00
700E00
F01C00
E03C00
E02C00
E05800
E0B800
F13800
7E3800
3C3000
007000
007000
006000
00E000
00E000
00E000
01E000
0FF800
ENDCHAR

STARTCHAR r
ENCODING 114
SWIDTH 389 0
DWIDTH 15 0
BBX 14 17 1 0
BITMAP
0E0C
7E3C
0E7C
1CDC
1C88
1D00
1A00
3C00
3C00
3800
3800
7000
7000
6000
E000
E000
E000
ENDCHAR

STARTCHAR s
ENCODING 115
SWIDTH 389 0
DWIDTH 15 0
BBX 14 17 -1 0
BITMAP
01E4
071C
060C
0E0C
0E08
0708
0780
03C0
03C0
01E0
00F0
4070
4070
6070
6060
70C0
8F80
ENDCHAR

STARTCHAR t
ENCODING 116
SWIDTH 278 0
DWIDTH 11 0
BBX 9 22 2 0
BITMAP
0100
0200
0600
0E00
1E00
FF80
1C00
1C00
1800
3800
3800
3800
7000
7000
7000
6000
E000
E200
E400
E800
F000
C000
ENDCHAR

STARTCHAR u
ENCODING 117
SWIDTH 500 0
DWIDTH 19 0
BBX 17 17 1 0
BITMAP
0E0380
3E0380
4E0700
CE0700
0C0700
1C0E00
1C0E00
1C1E00
381400
382C00
383C00
305C00
709800
713980
723B00
7C3E00
383800
ENDCHAR

STARTCHAR v
ENCODING 118
SWIDTH 444 0
DWIDTH 17 0
BBX 16 17 1 0
BITMAP
0806
FC0F
1C07
1C03
1E03
0E02
0E06
0E04
0E08
0E18
0E10
0E20
0640
0680
0700
0600
0400
ENDCHAR

STARTCHAR w
ENCODING 119
SWIDTH 667 0
DWIDTH 25 0
BBX 25 17 0 0
BITMAP
0C010300
FC030380
1C070380
0E070180
0E0F0100
0E0B0100
0E170200
0E330200
0E230400
0E438C00
06438800
06839000
0783A000
0703C000
0603C000
06038000
04030000
ENDCHAR

STARTCHAR x
ENCODING 120
SWIDTH 444 0
DWIDTH 17 0
BBX 18 17 -1 0
BITMAP
1F0380
0787C0
038980
01D000
01D000
01E000
00C000
00E000
00E000
01E000
016000
027000
027100
047100
C87200
F03C00
E03800
ENDCHAR

STARTCHAR y
ENCODING 121
SWIDTH 444 0
DWIDTH 17 0
BBX 19 25 -3 -8
BITMAP
0180C0
1F80E0
03C0E0
01C060
01C020
01C040
01C040
01C080
00C180
00C100
00C200
00E400
00E400
00E800
00F000
00E000
00E000
00C000
008000
010000
020000
040000
E80000
F00000
E00000
ENDCHAR

STARTCHAR z
ENCODING 122
SWIDTH 389 0
DWIDTH 15 0
BBX 16 17 -1 0
BITMAP
0FFF
0FFE
1FF4
1008
1010
0020
0060
00C0
0180
0300
0600
0C00
1804
3008
3FF8
7FF0
FFF0
ENDCHAR

STARTCHAR braceleft
ENCODING 123
SWIDTH 400 0
DWIDTH 15 0
BBX 15 34 4 -8
BITMAP
000E
0030
0060
00C0
01C0
01C0
0380
0380
0380
0380
0380
0300
0700
0600
0C00
3000
C000
6000
3000
1800
1800
1800
3800
3800
7000
7000
E000
E000
E000
C000
C000
6000
6000
1C00
ENDCHAR

STARTCHAR bar
ENCODING 124
SWIDTH 200 0
DWIDTH 8 0
BBX 2 34 3 -8
BITMAP
C0
C0
C0
C0
C0
C0
C0
C0
C0
C0
C0
C0
C0
C0
C0
C0
C0
C0
C0
C0
C0
C0
C0
C0
C0
C0
C0
C0
C0
C0
C0
C0
C0
C0
ENDCHAR

STARTCHAR braceright
ENCODING 125
SWIDTH 400 0
DWIDTH 15 0
BBX 15 34 -4 -8
BITMAP
0078
000C
0006
0006
0006
000E
000E
001E
001C
001C
0038
0038
0030
0030
0010
0018
0002
000C
0030
0060
00C0
01C0
0180
0380
0380
0380
0380
0380
0300
0700
0600
0C00
3000
C000
ENDCHAR

STARTCHAR asciitilde
ENCODING 126
SWIDTH 541 0
DWIDTH 21 0
BBX 19 6 2 10
BITMAP
1E0020
7F8040
7FE040
C1FF80
807F80
800E00
ENDCHAR

STARTCHAR space
ENCODING 160
SWIDTH 250 0
DWIDTH 11 0
BBX 0 0 0 0
BITMAP
ENDCHAR

STARTCHAR exclamdown
ENCODING 161
SWIDTH 389 0
DWIDTH 15 0
BBX 9 26 3 -8
BITMAP
0300
0780
0780
0300
0000
0000
0000
0400
0400
0400
0C00
0800
0800
1800
1800
1800
3800
3000
3000
7000
7000
7000
E000
E000
E000
C000
ENDCHAR

STARTCHAR cent
ENCODING 162
SWIDTH 500 0
DWIDTH 19 0
BBX 15 31 2 -7
BITMAP
0008
0018
0010
0010
0010
0020
0020
00F8
03E6
0746
0C4E
1C4E
388C
7080
7080
6100
E100
E100
E300
E204
E208
7210
7C60
3F80
0400
0800
0800
0800
1800
1000
1000
ENDCHAR

STARTCHAR sterling
ENCODING 163
SWIDTH 500 0
DWIDTH 19 0
BBX 19 26 1 0
BITMAP
000FC0
0019E0
0030E0
0070E0
006000
00E000
00E000
01E000
01C000
01C000
03C000
3FFE00
3FFC00
038000
038000
038000
030000
070000
070000
060000
1E0000
7F0000
C7C180
8DFE00
99FE00
707800
ENDCHAR

STARTCHAR currency
ENCODING 164
SWIDTH 500 0
DWIDTH 19 0
BBX 19 19 1 3
BITMAP
400040
E1F0E0
77FDC0
3E0780
180300
300180
300080
2000C0
6000C0
6000C0
6000C0
2000C0
300180
300180
180300
3E0F80
77FDC0
E0E0E0
400040
ENDCHAR

STARTCHAR yen
ENCODING 165
SWIDTH 500 0
DWIDTH 19 0
BBX 24 26 0 0
BITMAP
07F87F
03C01C
01C018
01C010
01E030
00E060
00E040
00E080
007180
007300
007200
003C00
3FFFFC
003800
003800
007000
007000
FFFFF0
00F000
00E000
00E000
00E000
01E000
01E000
03E000
0FF800
ENDCHAR

STARTCHAR brokenbar
ENCODING 166
SWIDTH 200 0
DWIDTH 8 0
BBX 2 34 3 -8
BITMAP
C0
C0
C0
C0
C0
C0
C0
C0
C0
C0
C0
00
00
00
00
00
00
00
00
00
00
00
00
C0
C0
C0
C0
C0
C0
C0
C0
C0
C0
C0
ENDCHAR

STARTCHAR section
ENCODING 167
SWIDTH 500 0
DWIDTH 19 0
BBX 19 34 0 -8
BITMAP
000F00
0030C0
0060E0
004060
00C060
00C000
00C000
00E000
006000
007000
003800
01FC00
061C00
040E00
0C0700
0C0700
0C0300
0E0300
060300
070200
038600
01D800
01C000
00E000
006000
007000
003000
003000
E03000
E02000
E02000
704000
308000
0F0000
ENDCHAR

STARTCHAR dieresis
ENCODING 168
SWIDTH 333 0
DWIDTH 13 0
BBX 11 4 5 20
BITMAP
60C0
F1E0
F1E0
60C0
ENDCHAR

STARTCHAR copyright
ENCODING 169
SWIDTH 760 0
DWIDTH 29 0
BBX 26 26 2 0
BITMAP
007F8000
01C07000
06001800
0C000400
181F9200
3060F100
20C03180
41801080
43801080
C3000040
87000040
87000040
87000040
87000040
87000040
C7000040
438000C0
43801080
61C02180
20F0C100
103F8300
18000600
0C000C00
03001800
01E0E000
003F8000
ENDCHAR

STARTCHAR ordfeminine
ENCODING 170
SWIDTH 276 0
DWIDTH 10 0
BBX 11 11 2 15
BITMAP
0760
18E0
38C0
30C0
70C0
61C0
E1C0
E280
E5A0
F9C0
7180
ENDCHAR

STARTCHAR guillemotleft
ENCODING 171
SWIDTH 500 0
DWIDTH 19 0
BBX 17 18 1 -1
BITMAP
00C080
018100
010200
030600
060C00
0C1800
183000
387000
F1E000
70E000
70E000
306000
387000
183000
183000
081000
0C0800
040800
ENDCHAR

STARTCHAR logicalnot
ENCODING 172
SWIDTH 675 0
DWIDTH 26 0
BBX 20 8 4 9
BITMAP
FFFFF0
FFFFF0
000030
000030
000030
000030
000030
000030
ENDCHAR

STARTCHAR hyphen
ENCODING 173
SWIDTH 333 0
DWIDTH 13 0
BBX 10 3 1 7
BITMAP
7FC0
FFC0
FFC0
ENDCHAR

STARTCHAR registered
ENCODING 174
SWIDTH 760 0
DWIDTH 29 0
BBX 26 26 2 0
BITMAP
007F8000
01C0E000
07001800
0C000C00
18000600
13FF0300
20E3C100
60E1E080
40E0E080
40E0E0C0
C0E0E040
80E1C040
80E38040
80FE0040
80E70040
80E70040
C0E38040
40E1C080
40E0C080
20E0E180
33F87B00
18000200
0C000C00
06001800
01C0E000
007F8000
ENDCHAR

STARTCHAR macron
ENCODING 175
SWIDTH 333 0
DWIDTH 13 0
BBX 11 2 5 21
BITMAP
FFE0
FFE0
ENDCHAR

STARTCHAR degree
ENCODING 176
SWIDTH 400 0
DWIDTH 15 0
BBX 12 12 3 14
BITMAP
0F00
3FC0
70E0
6060
C030
C030
C030
C030
6060
70E0
3FC0
0F00
ENDCHAR

STARTCHAR plusminus
ENCODING 177
SWIDTH 675 0
DWIDTH 26 0
BBX 20 20 4 2
BITMAP
006000
006000
006000
006000
006000
006000
006000
006000
006000
FFFFF0
FFFFF0
006000
006000
006000
006000
006000
006000
006000
FFFFF0
FFFFF0
ENDCHAR

STARTCHAR twosuperior
ENCODING 178
SWIDTH 300 0
DWIDTH 11 0
BBX 10 14 2 12
BITMAP
0700
1FC0
31C0
00C0
00C0
0180
0180
0300
0600
0C00
1000
2180
FF00
FE00
ENDCHAR

STARTCHAR threesuperior
ENCODING 179
SWIDTH 300 0
DWIDTH 11 0
BBX 10 13 2 13
BITMAP
0780
19C0
00C0
00C0
0180
1E00
0780
0380
0180
0180
0300
E200
7C00
ENDCHAR

STARTCHAR acute
ENCODING 180
SWIDTH 333 0
DWIDTH 13 0
BBX 6 6 8 20
BITMAP
7C
70
70
E0
C0
80
ENDCHAR

STARTCHAR mu
ENCODING 181
SWIDTH 500 0
DWIDTH 19 0
BBX 20 25 -2 -8
BITMAP
01C070
01C0E0
01C0E0
0380E0
0380C0
0381C0
0701C0
0701C0
070380
060380
0E0380
0E0700
0E0F10
1E0B10
1E3720
17E7E0
338380
300000
200000
600000
600000
E00000
E00000
E00000
400000
ENDCHAR

STARTCHAR paragraph
ENCODING 182
SWIDTH 523 0
DWIDTH 20 0
BBX 20 33 3 -7
BITMAP
01FFF0
07F080
1FF080
3FF180
3FF100
7FE100
7FE300
7FE300
FFC200
FFC200
7FC600
7FC400
3F8400
0F8C00
018C00
010800
010800
031800
031000
021000
023000
063000
042000
042000
046000
0C4000
084000
08C000
18C000
108000
108000
118000
310000
ENDCHAR

STARTCHAR periodcentered
ENCODING 183
SWIDTH 250 0
DWIDTH 10 0
BBX 4 4 4 11
BITMAP
60
F0
F0
60
ENDCHAR

STARTCHAR cedilla
ENCODING 184
SWIDTH 333 0
DWIDTH 13 0
BBX 9 8 -2 -8
BITMAP
0600
0E00
1F80
0780
0380
0380
0700
FC00
ENDCHAR

STARTCHAR onesuperior
ENCODING 185
SWIDTH 300 0
DWIDTH 11 0
BBX 9 14 3 12
BITMAP
0180
0F00
0300
0600
0600
0600
0E00
0C00
0C00
1C00
1800
1800
3800
FC00
ENDCHAR

STARTCHAR ordmasculine
ENCODING 186
SWIDTH 310 0
DWIDTH 12 0
BBX 11 11 3 15
BITMAP
0780
18C0
30E0
70E0
70E0
E0E0
E1C0
E1C0
6180
6300
1C00
ENDCHAR

STARTCHAR guillemotright
ENCODING 187
SWIDTH 500 0
DWIDTH 19 0
BBX 17 18 1 -1
BITMAP
081000
040800
040800
060C00
060C00
070600
030700
038700
03C780
038700
070E00
0E1C00
1C1800
183000
306000
60C000
408000
810000
ENDCHAR

STARTCHAR onequarter
ENCODING 188
SWIDTH 750 0
DWIDTH 29 0
BBX 24 26 3 -1
BITMAP
0F801C
030010
070030
060060
060060
0E00C0
0C0080
0C0180
1C0300
180200
180600
380C00
FC0803
001806
00300E
00201E
00603C
00C04C
00808C
018118
030218
0207FE
060030
0C0030
080030
180060
ENDCHAR

STARTCHAR onehalf
ENCODING 189
SWIDTH 750 0
DWIDTH 29 0
BBX 23 27 3 -1
BITMAP
0F8018
030030
070060
060040
0600C0
0E0180
0C0100
0C0300
1C0600
180600
180C00
380800
FC1838
0030FE
00218E
006006
00C006
00800C
01800C
030018
020030
060060
0C0080
0C010C
1807F8
1007F0
300000
ENDCHAR

STARTCHAR threequarters
ENCODING 190
SWIDTH 750 0
DWIDTH 29 0
BBX 25 27 2 -1
BITMAP
07800400
19C00C00
00C01800
00C01000
01803000
1E006000
07804000
0380C000
01818000
01810000
03030000
E3060000
7C040180
000C0300
00080300
00180E00
00301600
00202600
00604C00
00C08C00
00810C00
0183FF00
03001800
02001800
06001800
0C003000
18000000
ENDCHAR

STARTCHAR questiondown
ENCODING 191
SWIDTH 500 0
DWIDTH 19 0
BBX 14 26 1 -8
BITMAP
0018
003C
003C
0018
0000
0000
0000
0010
0010
0020
0020
0040
0080
0380
0700
1E00
3C00
7800
7000
F000
E030
E038
E038
7030
3860
0F80
ENDCHAR

STARTCHAR Agrave
ENCODING 192
SWIDTH 611 0
DWIDTH 23 0
BBX 24 33 -2 0
BITMAP
00003C
00001C
00000E
000006
000002
000001
000000
000004
000008
000018
000038
000038
000078
0000D8
0001B8
000138
000278
000678
000C70
000870
001070
003070
006070
007FF0
008070
018070
0300F0
0200F0
0400F0
0C00E0
1C00F0
3C01F0
FF07FE
ENDCHAR

STARTCHAR Aacute
ENCODING 193
SWIDTH 611 0
DWIDTH 23 0
BBX 26 33 -2 0
BITMAP
000003C0
00000780
00000700
00000600
00000C00
00000800
00000000
00000400
00000800
00001800
00003800
00003800
00007800
0000D800
0001B800
00013800
00027800
00067800
000C7000
00087000
00107000
00307000
00607000
007FF000
00807000
01807000
0300F000
0200F000
0400F000
0C00E000
1C00F000
3C01F000
FF07FE00
ENDCHAR

STARTCHAR Acircumflex
ENCODING 194
SWIDTH 611 0
DWIDTH 23 0
BBX 26 33 -2 0
BITMAP
00000380
00000780
00000EC0
000018C0
00002040
00004040
00000000
00000400
00000800
00001800
00003800
00003800
00007800
0000D800
0001B800
00013800
00027800
00067800
000C7000
00087000
00107000
00307000
00607000
007FF000
00807000
01807000
0300F000
0200F000
0400F000
0C00E000
1C00F000
3C01F000
FF07FE00
ENDCHAR

STARTCHAR Atilde
ENCODING 195
SWIDTH 611 0
DWIDTH 23 0
BBX 27 32 -2 0
BITMAP
00007820
0000FE20
00008FE0
000103C0
00000000
00000000
00000400
00000800
00001800
00003800
00003800
00007800
0000D800
0001B800
00013800
00027800
00067800
000C7000
00087000
00107000
00307000
00607000
007FF000
00807000
01807000
0300F000
0200F000
0400F000
0C00E000
1C00F000
3C01F000
FF07FE00
ENDCHAR

STARTCHAR Adieresis
ENCODING 196
SWIDTH 611 0
DWIDTH 23 0
BBX 28 32 -2 0
BITMAP
00003060
000078F0
000078F0
00003060
00000000
00000000
00000400
00000C00
00001C00
00001C00
00003C00
00007800
0000D800
0000B800
00013800
00033800
00063800
00043800
00087800
00187800
00307800
00207000
007FF000
00C07000
01807000
01007000
02007000
06007000
0400F000
0C00F000
1C01F800
FF07FE00
ENDCHAR

STARTCHAR Aring
ENCODING 197
SWIDTH 611 0
DWIDTH 23 0
BBX 26 34 -2 0
BITMAP
00000F80
000008C0
00001040
00001040
00001040
000008C0
00000F80
00000000
00000400
00000C00
00001800
00003800
00003800
00007800
0000D800
0001B800
00013800
00023800
00067800
000C7800
00087000
00107000
00307000
00607000
007FF000
00807000
01807000
01007000
02007000
0600F000
0C00F000
1C00F000
3C01F000
FF07FE00
ENDCHAR

STARTCHAR AE
ENCODING 198
SWIDTH 889 0
DWIDTH 34 0
BBX 37 26 -2 0
BITMAP
00003FFFF8
00000D80F0
00000B8030
00001B8030
0000378020
0000670020
0000470000
0000870000
00018F0200
00030E0200
00020E0400
00041E1C00
00081FFC00
00181C1800
00301C0800
003FFC0800
0040380800
00C0380000
0180780080
0100780080
0200700180
0600700100
0C00F00300
1C00F00F00
3C01F07E00
FF0FFFFE00
ENDCHAR

STARTCHAR Ccedilla
ENCODING 199
SWIDTH 667 0
DWIDTH 25 0
BBX 24 33 2 -7
BITMAP
000FF1
00781F
00E00F
03C007
078002
0F0002
1E0002
1E0002
3C0000
380000
780000
780000
F00000
F00000
F00000
F00000
F00000
F00000
F00000
780000
780018
3C0030
3E0060
1F01C0
07FF00
00F800
004000
01F000
00F800
003800
003800
007000
0FC000
ENDCHAR

STARTCHAR Egrave
ENCODING 200
SWIDTH 611 0
DWIDTH 23 0
BBX 25 34 -1 0
BITMAP
000F0000
00070000
00038000
00018000
00008000
0000C000
00000000
00000000
01FFFF80
00780F80
00780300
00780100
00700100
00700100
00700000
00F00000
00E02000
00E02000
01E04000
01C1C000
01FFC000
01C1C000
03C08000
03808000
03808000
03800000
07800000
07000400
07000800
0F001800
0E001800
0E007000
1F01F000
FFFFF000
ENDCHAR

STARTCHAR Eacute
ENCODING 201
SWIDTH 611 0
DWIDTH 23 0
BBX 25 34 -1 0
BITMAP
00007800
0000F000
0000E000
0000C000
00018000
00010000
00000000
00000000
01FFFF80
00780F80
00780300
00780100
00700100
00700100
00700000
00F00000
00E02000
00E02000
01E04000
01C1C000
01FFC000
01C1C000
03C08000
03808000
03808000
03800000
07800000
07000400
07000800
0F001800
0E001800
0E007000
1F01F000
FFFFF000
ENDCHAR

STARTCHAR Ecircumflex
ENCODING 202
SWIDTH 611 0
DWIDTH 23 0
BBX 25 34 -1 0
BITMAP
00003800
00007800
0000D800
00019800
00020C00
000C0400
00000000
00000000
01FFFF80
00780F80
00780300
00780100
00700100
00700100
00700000
00F00000
00E02000
00E02000
01E04000
01C1C000
01FFC000
01C1C000
03C08000
03808000
03808000
03800000
07800000
07000400
07000800
0F001800
0E001800
0E007000
1F01F000
FFFFF000
ENDCHAR

STARTCHAR Edieresis
ENCODING 203
SWIDTH 611 0
DWIDTH 23 0
BBX 26 33 -1 0
BITMAP
00060C00
000F1E00
000F1E00
00060C00
00000000
00000000
00000000
01FFFFC0
00380780
00380180
00380180
00780080
00700100
00700000
00700000
00F01000
00E02000
00E06000
01E0E000
01FFC000
01C1C000
01C0C000
03C08000
03808000
03800000
07800000
07800200
07000400
07000C00
0F001800
0F003800
1F01F800
FFFFF000
ENDCHAR

STARTCHAR Igrave
ENCODING 204
SWIDTH 333 0
DWIDTH 13 0
BBX 17 34 -1 0
BITMAP
00F800
007800
003800
001C00
000C00
000400
000200
000000
01FF80
007C00
003800
007800
007800
007000
007000
00F000
00E000
00E000
00E000
01E000
01C000
01C000
03C000
038000
038000
038000
078000
070000
070000
0F0000
0E0000
0E0000
1F0000
FFC000
ENDCHAR

STARTCHAR Iacute
ENCODING 205
SWIDTH 333 0
DWIDTH 13 0
BBX 17 34 -1 0
BITMAP
000F80
000F00
000E00
000C00
001800
001000
001000
000000
01FF80
007C00
003800
007800
007800
007000
007000
00F000
00E000
00E000
00E000
01E000
01C000
01C000
03C000
038000
038000
038000
078000
070000
070000
0F0000
0E0000
0E0000
1F0000
FFC000
ENDCHAR

STARTCHAR Icircumflex
ENCODING 206
SWIDTH 333 0
DWIDTH 13 0
BBX 17 33 -1 0
BITMAP
000F00
001F00
003300
006180
018080
000000
000000
01FF80
007C00
003800
007800
007800
007000
007000
00F000
00E000
00E000
00E000
01E000
01C000
01C000
03C000
038000
038000
038000
078000
070000
070000
0F0000
0E0000
0E0000
1F0000
FFC000
ENDCHAR

STARTCHAR Idieresis
ENCODING 207
SWIDTH 333 0
DWIDTH 13 0
BBX 19 32 -2 0
BITMAP
0060C0
00F1E0
00F1E0
0060C0
000000
000000
01FFC0
003E00
003C00
003C00
003800
007800
007800
007000
007000
00F000
00E000
00E000
00E000
01E000
01C000
01C000
03C000
038000
038000
038000
078000
070000
070000
0F0000
0F0000
FFE000
ENDCHAR

STARTCHAR Gbreve
ENCODING 208
SWIDTH 722 0
DWIDTH 27 0
BBX 25 34 3 0
BITMAP
00040100
00040200
00020E00
0003FC00
0003F800
0000E000
00000000
00000000
001FF880
00781F00
01E00700
03C00300
07800300
0F000200
1E000200
1C000200
3C000000
78000000
78000000
78000000
F0000000
F003FF80
F0007C00
F0003800
F0003800
F0007800
F0007000
70007000
78007000
3800F000
3C00E000
1E00E000
0787E000
01FF0000
ENDCHAR

STARTCHAR Ntilde
ENCODING 209
SWIDTH 667 0
DWIDTH 25 0
BBX 30 33 -1 0
BITMAP
0003C080
0003F080
0004FF00
00043F00
00040E00
00000000
00000000
07F003FC
00F000E0
007800C0
007800C0
007C00C0
005C0080
005C0080
00DE0180
008E0100
008F0100
01870300
01070300
01078200
01038200
03038600
0201C400
0201C400
0601EC00
0600EC00
0400E800
0400F800
0C007800
0C007800
08003000
1C003000
FF003000
ENDCHAR

STARTCHAR Ograve
ENCODING 210
SWIDTH 722 0
DWIDTH 27 0
BBX 25 33 2 0
BITMAP
0007C000
0001C000
0000C000
00006000
00006000
00002000
00000000
000FF000
00383C00
00E01E00
01C00E00
03800700
07000700
0F000780
1E000780
1C000780
3C000780
3C000780
78000780
78000F00
78000F00
F0000F00
F0001E00
F0001E00
F0003C00
F0003C00
F0007800
70007000
7800E000
3801C000
3C038000
0E1E0000
03F80000
ENDCHAR

STARTCHAR Oacute
ENCODING 211
SWIDTH 722 0
DWIDTH 27 0
BBX 25 33 2 0
BITMAP
00003C00
00007000
00007000
00006000
0000C000
00008000
00000000
000FF000
00383C00
00E01E00
01C00E00
03800700
07000700
0F000780
1E000780
1C000780
3C000780
3C000780
78000780
78000F00
78000F00
F0000F00
F0001E00
F0001E00
F0003C00
F0003C00
F0007800
70007000
7800E000
3801C000
3C038000
0E1E0000
03F80000
ENDCHAR

STARTCHAR Ocircumflex
ENCODING 212
SWIDTH 722 0
DWIDTH 27 0
BBX 25 33 2 0
BITMAP
00007800
0000F800
0001D800
00030800
00060C00
00080400
00000000
000FF000
00383C00
00E01E00
01C00E00
03800700
07000700
0F000780
1E000780
1C000780
3C000780
3C000780
78000780
78000F00
78000F00
F0000F00
F0001E00
F0001E00
F0003C00
F0003C00
F0007800
70007000
7800E000
3801C000
3C038000
0E1E0000
03F80000
ENDCHAR

STARTCHAR Otilde
ENCODING 213
SWIDTH 722 0
DWIDTH 27 0
BBX 25 33 2 0
BITMAP
00070200
000FC200
0013FC00
0010FC00
00107800
00000000
00000000
000FF000
00383C00
00E01E00
01C00E00
03800700
07000700
0F000780
1E000780
1C000780
3C000780
3C000780
78000780
78000F00
78000F00
F0000F00
F0001E00
F0001E00
F0003C00
F0003C00
F0007800
70007000
7800E000
3801C000
3C038000
0E1E0000
03F80000
ENDCHAR

STARTCHAR Odieresis
ENCODING 214
SWIDTH 722 0
DWIDTH 27 0
BBX 25 32 2 0
BITMAP
00060C00
000F1E00
000F1E00
00060C00
00000000
00000000
000FF000
00383800
00E01E00
01C00E00
03800700
07000700
0F000780
1E000780
1C000780
3C000780
38000780
78000780
78000F00
70000F00
F0000F00
F0001E00
F0001E00
F0003C00
F0003C00
F0007800
7000F000
7800E000
3801C000
3C078000
0E1E0000
03F80000
ENDCHAR

STARTCHAR multiply
ENCODING 215
SWIDTH 675 0
DWIDTH 26 0
BBX 15 15 6 5
BITMAP
C002
600E
301C
1838
0C70
06E0
01C0
0380
0740
0E60
1C30
3818
700C
E006
4002
ENDCHAR

STARTCHAR Oslash
ENCODING 216
SWIDTH 722 0
DWIDTH 27 0
BBX 27 28 1 -1
BITMAP
00000020
0007F860
001C1EC0
00700F80
00E00780
01C00780
03800F80
07801BC0
070033C0
0F0063C0
1E00C3C0
1E0183C0
3C0303C0
3C060780
3C0C0780
78180780
78300F00
78600F00
78C01E00
79801E00
7B003C00
3E003800
3C007000
1C00E000
1E03C000
2F0F0000
E3FC0000
40000000
ENDCHAR

STARTCHAR Ugrave
ENCODING 217
SWIDTH 722 0
DWIDTH 27 0
BBX 27 34 4 0
BITMAP
000F8000
00078000
00038000
0001C000
0000C000
00004000
00002000
00000000
7FE01FE0
0F000700
0F000600
0E000600
1E000600
1C000400
1C000400
1C000C00
3C000800
38000800
38001800
78001000
70001000
70003000
70003000
F0002000
E0002000
E0006000
E0004000
E000C000
F0008000
70018000
78030000
3C0E0000
1FFC0000
03E00000
ENDCHAR

STARTCHAR Uacute
ENCODING 218
SWIDTH 722 0
DWIDTH 27 0
BBX 27 34 4 0
BITMAP
0000F800
0000F000
0000E000
0000C000
00018000
00010000
00010000
00000000
7FE01FE0
0F000700
0F000600
0E000600
1E000600
1C000400
1C000400
1C000C00
3C000800
38000800
38001800
78001000
70001000
70003000
70003000
F0002000
E0002000
E0006000
E0004000
E000C000
F0008000
70018000
78030000
3C0E0000
1FFC0000
03E00000
ENDCHAR

STARTCHAR Ucircumflex
ENCODING 219
SWIDTH 722 0
DWIDTH 27 0
BBX 27 33 4 0
BITMAP
0001E000
0003F000
00033000
00041000
00181800
00000000
00000000
7FE01FE0
0F000700
0F000600
0E000600
1E000600
1C000400
1C000400
1C000C00
3C000800
38000800
38001800
78001000
70001000
70003000
70003000
F0002000
E0002000
E0006000
E0004000
E000C000
F0008000
70018000
78030000
3C0E0000
1FFC0000
03E00000
ENDCHAR

STARTCHAR Udieresis
ENCODING 220
SWIDTH 722 0
DWIDTH 27 0
BBX 27 33 4 0
BITMAP
000C1800
001E3C00
001E3C00
000C1800
00000000
00000000
00000000
7FF01FE0
0F000300
0F000300
0E000200
0E000200
1E000600
1C000400
1C000400
3C000C00
38000C00
38000800
78000800
70001800
70001000
70001000
F0003000
E0002000
E0002000
E0006000
E0004000
F000C000
70018000
78030000
3C060000
1FFC0000
03E00000
ENDCHAR

STARTCHAR Idotaccent
ENCODING 221
SWIDTH 333 0
DWIDTH 13 0
BBX 17 32 -1 0
BITMAP
000C00
001E00
001E00
000C00
000000
000000
01FF80
003C00
003C00
003800
007800
007000
007000
007000
00F000
00E000
00E000
01E000
01C000
01C000
01C000
03C000
038000
038000
038000
078000
070000
070000
0F0000
0F0000
1F0000
FFE000
ENDCHAR

STARTCHAR Scedilla
ENCODING 222
SWIDTH 500 0
DWIDTH 19 0
BBX 21 33 0 -7
BITMAP
00FF18
01E1F0
038070
030070
070030
070020
070020
078020
07C000
03E000
01F000
00F800
007C00
003E00
003F00
001F00
000F80
200780
200780
600380
600380
600780
700700
780E00
FC3C00
87F800
018000
03C000
01E000
00E000
00E000
01C000
0F0000
ENDCHAR

STARTCHAR germandbls
ENCODING 223
SWIDTH 500 0
DWIDTH 19 0
BBX 25 34 -6 -8
BITMAP
00007C00
00018600
00030300
00070380
000E0380
000E0380
000E0380
001C0700
001C0600
001C1C00
00387000
0039E000
00383800
00301C00
00700E00
00700E00
00600E00
00E00E00
00E00E00
00E01E00
00C01C00
01CE1C00
01CE3800
018C7000
038CE000
03878000
03000000
03000000
07000000
06000000
06000000
CC000000
D8000000
E0000000
ENDCHAR

STARTCHAR agrave
ENCODING 224
SWIDTH 500 0
DWIDTH 19 0
BBX 17 26 1 0
BITMAP
00F800
003800
001800
001800
000C00
000400
000000
000000
000000
00F380
038B80
060F00
0C0700
1C0700
180E00
380E00
700E00
700E00
601C00
E01C00
E01C00
E07800
E0B980
F13900
7E3E00
3C3800
ENDCHAR

STARTCHAR aacute
ENCODING 225
SWIDTH 500 0
DWIDTH 19 0
BBX 17 26 1 0
BITMAP
001F00
001C00
001C00
001800
003000
002000
000000
000000
000000
00F380
038B80
060F00
0C0700
1C0700
180E00
380E00
700E00
700E00
601C00
E01C00
E01C00
E07800
E0B980
F13900
7E3E00
3C3800
ENDCHAR

STARTCHAR acircumflex
ENCODING 226
SWIDTH 500 0
DWIDTH 19 0
BBX 17 26 1 0
BITMAP
000F00
001F00
003B00
006300
00C180
010080
000000
000000
000000
00F380
038B80
060F00
0C0700
1C0700
180E00
380E00
700E00
700E00
601C00
E01C00
E01C00
E07800
E0B980
F13900
7E3E00
3C3800
ENDCHAR

STARTCHAR atilde
ENCODING 227
SWIDTH 500 0
DWIDTH 19 0
BBX 18 26 1 0
BITMAP
01E040
01F840
027F80
021F80
020F00
000000
000000
000000
000000
00F380
038B80
060F00
0C0700
1C0700
180E00
380E00
700E00
700E00
601C00
E01C00
E01C00
E07800
E0B980
F13900
7E3E00
3C3800
ENDCHAR

STARTCHAR adieresis
ENCODING 228
SWIDTH 500 0
DWIDTH 19 0
BBX 18 25 1 0
BITMAP
00C180
01E3C0
01E3C0
00C180
000000
000000
000000
000000
00F380
038B80
060780
0C0700
1C0700
180700
380E00
700E00
700E00
601C00
E01C00
E01C00
E07800
E0B880
F13900
7E3E00
3C3C00
ENDCHAR

STARTCHAR aring
ENCODING 229
SWIDTH 500 0
DWIDTH 19 0
BBX 18 26 1 0
BITMAP
001F00
003180
002080
002080
003180
001F00
000000
000000
000000
00FBC0
038B80
070780
0E0700
1C0700
180700
380700
700E00
700E00
601E00
E01C00
E03C00
E05C00
E0DC80
F1B900
7E3E00
3C1C00
ENDCHAR

STARTCHAR ae
ENCODING 230
SWIDTH 667 0
DWIDTH 25 0
BBX 24 17 1 0
BITMAP
00F13C
018B46
070787
0E0707
1C0706
180E0E
380E1C
700E30
701FC0
701C00
E03C00
E02C00
E05C04
E09C0C
F18E18
7E0FF0
3C03C0
ENDCHAR

STARTCHAR ccedilla
ENCODING 231
SWIDTH 444 0
DWIDTH 17 0
BBX 16 24 0 -7
BITMAP
007E
01C3
0303
0E07
0C07
1C00
3800
3800
7000
7000
7000
7000
7006
780C
3C18
3FE0
0F00
0400
1F00
0F80
0380
0380
0700
FC00
ENDCHAR

STARTCHAR egrave
ENCODING 232
SWIDTH 444 0
DWIDTH 17 0
BBX 15 26 1 0
BITMAP
01E0
00F0
0070
0030
0018
0008
0000
0000
0000
00F8
030E
060E
1C0E
180C
381C
7038
70E0
EF80
F000
E000
E000
E004
F018
7870
7FC0
1F00
ENDCHAR

STARTCHAR eacute
ENCODING 233
SWIDTH 444 0
DWIDTH 17 0
BBX 15 26 1 0
BITMAP
003E
0038
0030
0070
0060
0040
0000
0000
0000
00F8
030E
060E
1C0E
180C
381C
7038
70E0
EF80
F000
E000
E000
E004
F018
7870
7FC0
1F00
ENDCHAR

STARTCHAR ecircumflex
ENCODING 234
SWIDTH 444 0
DWIDTH 17 0
BBX 16 26 1 0
BITMAP
001C
003E
0076
00C6
0102
0201
0000
0000
0000
00F8
030E
060E
1C0E
180C
381C
7038
70E0
EF80
F000
E000
E000
E004
F018
7870
7FC0
1F00
ENDCHAR

STARTCHAR edieresis
ENCODING 235
SWIDTH 444 0
DWIDTH 17 0
BBX 17 25 1 0
BITMAP
018300
03C780
03C780
018300
000000
000000
000000
000000
00F800
030E00
060E00
1C0E00
180C00
381C00
703800
70E000
EF8000
F00000
E00000
E00000
E00400
F01800
787000
7FC000
1F0000
ENDCHAR

STARTCHAR igrave
ENCODING 236
SWIDTH 278 0
DWIDTH 11 0
BBX 9 26 2 0
BITMAP
1E00
0E00
0700
0300
0100
0080
0000
0000
0000
0E00
FC00
1C00
1C00
1800
3800
3800
3800
7000
7000
7000
6000
E000
E600
E400
F800
F000
ENDCHAR

STARTCHAR iacute
ENCODING 237
SWIDTH 278 0
DWIDTH 11 0
BBX 10 26 2 0
BITMAP
03C0
0380
0300
0600
0600
0C00
0000
0000
0000
0E00
FC00
1C00
1C00
1800
3800
3800
3800
7000
7000
7000
6000
E000
E600
E400
F800
F000
ENDCHAR

STARTCHAR icircumflex
ENCODING 238
SWIDTH 278 0
DWIDTH 11 0
BBX 11 26 2 0
BITMAP
01C0
03C0
0760
0C60
1820
2020
0000
0000
0000
0E00
FC00
1C00
1C00
1800
3800
3800
3800
7000
7000
7000
6000
E000
E600
E400
F800
F000
ENDCHAR

STARTCHAR idieresis
ENCODING 239
SWIDTH 278 0
DWIDTH 11 0
BBX 13 25 2 0
BITMAP
1830
3C78
3C78
1830
0000
0000
0000
0000
0E00
FC00
1C00
1C00
1800
3800
3800
3800
7000
7000
7000
6000
E000
E600
E400
F800
F000
ENDCHAR

STARTCHAR gbreve
ENCODING 240
SWIDTH 500 0
DWIDTH 19 0
BBX 21 35 -1 -8
BITMAP
002010
002030
003060
001FC0
001F80
000F00
000000
000000
000000
000000
007E00
01C3F8
0381F8
0701C0
0F01C0
0E01C0
0E01C0
0E0380
0E0380
070700
03FC00
00C000
030000
060000
0F0000
07F000
07FE00
187F00
300780
600380
E00180
E00180
700300
3C0E00
0FF000
ENDCHAR

STARTCHAR ntilde
ENCODING 241
SWIDTH 500 0
DWIDTH 19 0
BBX 17 26 1 0
BITMAP
01E080
03F880
027F80
023F00
040E00
000000
000000
000000
000000
0E0E00
7E3F00
0E6700
0CC700
1C8700
1D0E00
1E0E00
3A0E00
3C0C00
381C00
381C00
701C00
703800
703900
E03A00
E03C00
E03800
ENDCHAR

STARTCHAR ograve
ENCODING 242
SWIDTH 500 0
DWIDTH 19 0
BBX 16 26 1 0
BITMAP
00F0
0070
0038
0018
0008
000C
0000
0000
0000
00F8
030C
0E06
1C07
3807
3807
7007
7007
F00F
E00E
E00E
E01C
E01C
E038
7070
30C0
1F00
ENDCHAR

STARTCHAR oacute
ENCODING 243
SWIDTH 500 0
DWIDTH 19 0
BBX 16 26 1 0
BITMAP
001E
001C
0038
0030
0020
0040
0000
0000
0000
00F8
030C
0E06
1C07
3807
3807
7007
7007
F00F
E00E
E00E
E01C
E01C
E038
7070
30C0
1F00
ENDCHAR

STARTCHAR ocircumflex
ENCODING 244
SWIDTH 500 0
DWIDTH 19 0
BBX 16 26 1 0
BITMAP
000E
001E
0036
0063
0081
0301
0000
0000
0000
00F8
030C
0E06
1C07
3807
3807
7007
7007
F00F
E00E
E00E
E01C
E01C
E038
7070
30C0
1F00
ENDCHAR

STARTCHAR otilde
ENCODING 245
SWIDTH 500 0
DWIDTH 19 0
BBX 17 26 1 0
BITMAP
01E080
03F880
027D80
023F00
040E00
000000
000000
000000
000000
00F800
030C00
0E0600
1C0700
380700
380700
700700
700700
F00F00
E00E00
E00E00
E01C00
E01C00
E03800
707000
30C000
1F0000
ENDCHAR

STARTCHAR odieresis
ENCODING 246
SWIDTH 500 0
DWIDTH 19 0
BBX 18 25 1 0
BITMAP
00C180
01E3C0
01E3C0
00C180
000000
000000
000000
000000
00FC00
038600
060700
1C0380
1C0380
380380
700380
700780
F00780
E00700
E00F00
E00E00
E01C00
E01C00
703000
30E000
1F0000
ENDCHAR

STARTCHAR divide
ENCODING 247
SWIDTH 675 0
DWIDTH 26 0
BBX 20 14 4 6
BITMAP
00E000
00E000
00E000
000000
000000
000000
FFFFF0
FFFFF0
000000
000000
000000
00E000
00E000
00E000
ENDCHAR

STARTCHAR oslash
ENCODING 248
SWIDTH 500 0
DWIDTH 19 0
BBX 18 19 0 -1
BITMAP
000040
007C80
018700
070300
0E0780
1C0B80
1C1B80
383380
386380
78C780
718700
730700
760E00
7C0E00
781C00
383800
786000
CF8000
800000
ENDCHAR

STARTCHAR ugrave
ENCODING 249
SWIDTH 500 0
DWIDTH 19 0
BBX 17 27 1 0
BITMAP
00F000
007800
003800
001800
000C00
000400
000400
000000
000000
000000
1E0380
3E0300
4E0700
CE0700
0C0700
1C0E00
1C0E00
1C1E00
381400
383C00
385C00
305C00
709880
713900
723B00
7C3E00
383800
ENDCHAR

STARTCHAR uacute
ENCODING 250
SWIDTH 500 0
DWIDTH 19 0
BBX 17 27 1 0
BITMAP
000F00
001E00
001C00
001800
003000
003000
002000
000000
000000
000000
1E0380
3E0300
4E0700
CE0700
0C0700
1C0E00
1C0E00
1C1E00
381400
383C00
385C00
305C00
709880
713900
723B00
7C3E00
383800
ENDCHAR

STARTCHAR ucircumflex
ENCODING 251
SWIDTH 500 0
DWIDTH 19 0
BBX 17 26 1 0
BITMAP
000F00
001F00
003300
006100
008080
010080
000000
000000
000000
1E0380
3E0300
4E0700
CE0700
0C0700
1C0E00
1C0E00
1C1E00
381400
383C00
385C00
305C00
709880
713900
723B00
7C3E00
383800
ENDCHAR

STARTCHAR udieresis
ENCODING 252
SWIDTH 500 0
DWIDTH 19 0
BBX 18 25 1 0
BITMAP
00C180
01E3C0
01E3C0
00C180
000000
000000
000000
000000
1E0380
3E0380
4E0700
CE0700
0C0700
1C0F00
1C0E00
1C1E00
381600
382C00
385C00
305C00
709880
713900
723900
7C3E00
383C00
ENDCHAR

STARTCHAR dotlessi
ENCODING 253
SWIDTH 278 0
DWIDTH 11 0
BBX 7 17 2 0
BITMAP
0E
FC
1C
1C
18
38
38
38
70
70
70
60
E0
E6
E4
F8
F0
ENDCHAR

STARTCHAR scedilla
ENCODING 254
SWIDTH 389 0
DWIDTH 15 0
BBX 14 23 -1 -6
BITMAP
01E4
071C
060C
0E0C
0E08
0F08
0780
03C0
03C0
01E0
00F0
4070
4070
6070
6060
70C0
8780
0C00
1F00
0700
0700
0600
7800
ENDCHAR

STARTCHAR ydieresis
ENCODING 255
SWIDTH 444 0
DWIDTH 17 0
BBX 19 33 -3 -8
BITMAP
0060C0
00F1E0
00F1E0
0060C0
000000
000000
000000
000000
0180C0
1F80E0
03C0E0
01C060
01C020
01C060
01C040
01C080
01C080
00C100
00C200
00E600
00E400
00E800
00F000
00F000
00E000
00C000
008000
010000
020000
040000
C80000
F00000
E00000
ENDCHAR
ENDFONT
